<svg xmlns="http://www.w3.org/2000/svg" viewBox="0 0 138.13 27.79"><defs><style>.a{fill:#1a80b2;}</style></defs><title>filmloop</title><path class="a" d="M231.73,291.39a4,4,0,0,0-1.34-1.18,4.77,4.77,0,0,0-2.09-.49,4.54,4.54,0,0,0-2,.49,4.28,4.28,0,0,0-1.4,1.18,3.85,3.85,0,0,0-.87,1.9,28.33,28.33,0,0,0-.24,4.61,27.68,27.68,0,0,0,.24,4.58,3.88,3.88,0,0,0,.87,1.94,4,4,0,0,0,1.4,1.15,3.85,3.85,0,0,0,2,.52,4,4,0,0,0,2.09-.52,3.75,3.75,0,0,0,1.34-1.15,4.09,4.09,0,0,0,.9-1.94,29.48,29.48,0,0,0,.23-4.58,30.16,30.16,0,0,0-.23-4.61A4.07,4.07,0,0,0,231.73,291.39Z" transform="translate(-140.72 -283.55)"/><path class="a" d="M199,283.55v27.79h79.8V283.55H199Zm18.38,25.81H203.26v-22.9h3.36v19.63h10.81v3.26ZM236,303.21a5.41,5.41,0,0,1-.78,2.21,7.38,7.38,0,0,1-2.52,2.8,7.74,7.74,0,0,1-4.41,1.32,8,8,0,0,1-6.95-4.11q-0.24-.52-0.44-1a6.59,6.59,0,0,1-.3-1.22,62.42,62.42,0,0,1,0-10.66,6.48,6.48,0,0,1,.75-2.19,7.79,7.79,0,0,1,2.58-2.82,7.47,7.47,0,0,1,4.36-1.28,7.62,7.62,0,0,1,6.93,4.11,5.37,5.37,0,0,1,.77,2.18A71.89,71.89,0,0,1,236,303.21Zm19.61,0a5.41,5.41,0,0,1-.78,2.21,7.38,7.38,0,0,1-2.52,2.8,7.74,7.74,0,0,1-4.41,1.32,8,8,0,0,1-6.95-4.11q-0.24-.52-0.44-1a6.59,6.59,0,0,1-.3-1.22,62.42,62.42,0,0,1,0-10.66,6.48,6.48,0,0,1,.75-2.19,7.79,7.79,0,0,1,2.58-2.82,7.47,7.47,0,0,1,4.36-1.28,7.62,7.62,0,0,1,6.93,4.11,5.37,5.37,0,0,1,.77,2.18A71.89,71.89,0,0,1,255.63,303.21Zm18.42-5.06a6.47,6.47,0,0,1-5.21,2.26h-5.12v8.94h-3.36v-22.9h8a12.5,12.5,0,0,1,2.53.25,6.73,6.73,0,0,1,2.47,1.35,5.48,5.48,0,0,1,1.7,2.2,7.29,7.29,0,0,1,.68,3.27A7.07,7.07,0,0,1,274.05,298.16Z" transform="translate(-140.72 -283.55)"/><path class="a" d="M251.34,291.39a4,4,0,0,0-1.34-1.18,4.77,4.77,0,0,0-2.09-.49,4.54,4.54,0,0,0-2,.49,4.28,4.28,0,0,0-1.4,1.18,3.85,3.85,0,0,0-.87,1.9,28.33,28.33,0,0,0-.24,4.61,27.68,27.68,0,0,0,.24,4.58,3.88,3.88,0,0,0,.87,1.94,4,4,0,0,0,1.4,1.15,3.85,3.85,0,0,0,2,.52,4,4,0,0,0,2.09-.52,3.75,3.75,0,0,0,1.34-1.15,4.09,4.09,0,0,0,.9-1.94,29.48,29.48,0,0,0,.23-4.58,30.16,30.16,0,0,0-.23-4.61A4.07,4.07,0,0,0,251.34,291.39Z" transform="translate(-140.72 -283.55)"/><path class="a" d="M271,290.37a4.12,4.12,0,0,0-2.41-.65h-4.86v7.43h5a3.5,3.5,0,0,0,2.82-1.2,4,4,0,0,0,.9-2.52,4.6,4.6,0,0,0-.37-1.94A2.86,2.86,0,0,0,271,290.37Z" transform="translate(-140.72 -283.55)"/><path class="a" d="M140.72,286.46h14.17v3.26H144.08v6.77h9.23v3.07h-9.23v9.79h-3.36v-22.9Z" transform="translate(-140.72 -283.55)"/><path class="a" d="M157.8,286.46H161v3.26H157.8v-3.26Zm0,6.6H161v16.3H157.8v-16.3Z" transform="translate(-140.72 -283.55)"/><path class="a" d="M165.42,286.46h3.17v18.7a1,1,0,0,0,1.19,1.12h1.1v3.08h-1.41a4.46,4.46,0,0,1-2.86-.89,3.6,3.6,0,0,1-1.19-3.05v-19Z" transform="translate(-140.72 -283.55)"/><path class="a" d="M173.58,293.05h3.18v1.73h0.06a5.28,5.28,0,0,1,4.26-1.93,6.09,6.09,0,0,1,2.73.58,8.17,8.17,0,0,1,1.87,1.55,6.42,6.42,0,0,1,5.14-2.14,5.59,5.59,0,0,1,3.71,1.43,5.49,5.49,0,0,1,1.73,4.24v10.84h-3.17v-9.72a3.5,3.5,0,0,0-.91-2.61,3.18,3.18,0,0,0-2.35-.91,3.23,3.23,0,0,0-2.36.91,3.43,3.43,0,0,0-.94,2.61v9.72h-3.17v-9.72a3.5,3.5,0,0,0-.91-2.61,3.23,3.23,0,0,0-2.36-.91,3.18,3.18,0,0,0-2.35.91,3.4,3.4,0,0,0-1,2.61v9.72h-3.17v-16.3Z" transform="translate(-140.72 -283.55)"/></svg>