<svg id="layer1" data-name="layer1" xmlns="http://www.w3.org/2000/svg" viewBox="0 0 168.09 25.14"><defs><style>.cls-1{fill:#1a80b2;}</style></defs><title>teardrop</title><path class="cls-1" d="M130.34,291.91h-4.45v-6.33h16.86v6.33h-4.45v17.8h-8v-17.8Zm4.45,14.9V289.34H140v-0.87H128.67v0.87h5.17v17.47h0.94Z" transform="translate(-125.89 -284.96)"/><path class="cls-1" d="M144,285.58h14.22v6.33h-6.51v2.68h6.4v6h-6.4v2.79h6.76v6.33H144V285.58Zm11.79,21.23v-0.87h-7.23V298h6.87v-0.87h-6.87v-7.81h7.23v-0.87h-8.17v18.34h8.17Z" transform="translate(-125.89 -284.96)"/><path class="cls-1" d="M167.81,285.58h5.79l9.15,24.13h-7.6l-0.8-2.17h-7.31l-0.8,2.17h-7.6ZM164,306.81l0.69-1.81h11.94l0.69,1.81h1l-7-18.34H170l-7,18.34h1Zm6.66-17.47,5.64,14.79H165.06Zm1.63,12.88L170.7,298l-1.63,4.23h3.26Z" transform="translate(-125.89 -284.96)"/><path class="cls-1" d="M183.29,285.58h8.32a14.34,14.34,0,0,1,4.29.61,10,10,0,0,1,3.42,1.81,8.3,8.3,0,0,1,2.26,2.95,9.49,9.49,0,0,1,.81,4,8.29,8.29,0,0,1-.51,3.07,9.43,9.43,0,0,1-1.12,2.1,7.84,7.84,0,0,1-1.63,1.59l4.52,8h-9L191,303.59v6.11h-7.7V285.58Zm7.52,15.73a13,13,0,0,0,2.75-.29l3.44,5.79h1.12l-3.62-6.08a6.79,6.79,0,0,0,3.11-2.12,5.7,5.7,0,0,0,1.16-3.71,6,6,0,0,0-.61-2.79,5.89,5.89,0,0,0-1.68-2,7.55,7.55,0,0,0-2.51-1.23,11.37,11.37,0,0,0-3.15-.42h-3.91v18.34h0.94v-5.5h3Zm-3-.87v-11.1h3a8.22,8.22,0,0,1,5.15,1.45,4.92,4.92,0,0,1,1.86,4.12A4.86,4.86,0,0,1,196,299a8.29,8.29,0,0,1-5.15,1.43h-3Zm3.15-3h0.4a4.23,4.23,0,0,0,2.33-.62,2.7,2.7,0,0,0,0-4.12,4.23,4.23,0,0,0-2.33-.61H191v5.35Z" transform="translate(-125.89 -284.96)"/><path class="cls-1" d="M204.38,309.7V285.58h6.69a22.09,22.09,0,0,1,6.06.76,12.12,12.12,0,0,1,4.49,2.28,9.83,9.83,0,0,1,2.79,3.78,14.73,14.73,0,0,1,0,10.45,9.83,9.83,0,0,1-2.79,3.78,12.32,12.32,0,0,1-4.49,2.3,21.58,21.58,0,0,1-6.06.78h-6.69Zm3.62-2.89h3.07q5.28,0,8-2.41a9.86,9.86,0,0,0,0-13.55q-2.7-2.39-8-2.39H208v18.34Zm0.94-.87v-16.6h2.13q4.59,0,7.14,2.08a8.84,8.84,0,0,1,0,12.43q-2.55,2.1-7.14,2.1h-2.13Zm3.15-3.11a6.22,6.22,0,0,0,4.2-1.28,4.91,4.91,0,0,0,1.48-3.92,4.86,4.86,0,0,0-1.48-3.91,6.28,6.28,0,0,0-4.2-1.27v10.38Z" transform="translate(-125.89 -284.96)"/><path class="cls-1" d="M227.35,285.58h8.32a14.34,14.34,0,0,1,4.29.61,10,10,0,0,1,3.42,1.81,8.28,8.28,0,0,1,2.26,2.95,9.48,9.48,0,0,1,.81,4,8.28,8.28,0,0,1-.51,3.07,9.41,9.41,0,0,1-1.12,2.1,7.82,7.82,0,0,1-1.63,1.59l4.52,8h-9l-3.62-6.11v6.11h-7.7V285.58Zm7.52,15.73a13,13,0,0,0,2.75-.29l3.44,5.79h1.12l-3.62-6.08a6.79,6.79,0,0,0,3.11-2.12,5.71,5.71,0,0,0,1.16-3.71,6,6,0,0,0-.62-2.79,5.89,5.89,0,0,0-1.68-2,7.55,7.55,0,0,0-2.51-1.23,11.37,11.37,0,0,0-3.15-.42H231v18.34h0.94v-5.5h3Zm-3-.87v-11.1h3a8.21,8.21,0,0,1,5.15,1.45,4.91,4.91,0,0,1,1.86,4.12A4.86,4.86,0,0,1,240,299a8.28,8.28,0,0,1-5.15,1.43h-3Zm3.15-3h0.4a4.23,4.23,0,0,0,2.33-.62,2.7,2.7,0,0,0,0-4.12,4.24,4.24,0,0,0-2.33-.61h-0.4v5.35Z" transform="translate(-125.89 -284.96)"/><path class="cls-1" d="M294,294.77a9.5,9.5,0,0,1-.87,4.25,7.57,7.57,0,0,1-2.37,2.84,10.16,10.16,0,0,1-3.51,1.59,17.62,17.62,0,0,1-4.32.51v5.75H275.2V285.58h7.71a17.64,17.64,0,0,1,4.32.51,10.16,10.16,0,0,1,3.51,1.59,7.58,7.58,0,0,1,2.37,2.84A9.5,9.5,0,0,1,294,294.77Zm-3.51,0a6.58,6.58,0,0,0-.56-2.82,5.12,5.12,0,0,0-1.57-2,7.07,7.07,0,0,0-2.41-1.14,11.46,11.46,0,0,0-3-.38h-4.09v18.34h0.94v-5.75h3.15a11.46,11.46,0,0,0,3-.38,7.07,7.07,0,0,0,2.41-1.14,5.12,5.12,0,0,0,1.57-2A6.58,6.58,0,0,0,290.47,294.77Zm-1,0a5.63,5.63,0,0,1-.54,2.6,4.43,4.43,0,0,1-1.45,1.66,6.09,6.09,0,0,1-2.08.89,11,11,0,0,1-2.48.27h-3.15V289.34h3.15a11,11,0,0,1,2.48.27,6.1,6.1,0,0,1,2.08.89,4.44,4.44,0,0,1,1.45,1.66A5.64,5.64,0,0,1,289.46,294.77Zm-6.55,2.68h0.33a2.91,2.91,0,0,0,2.19-.71,3.24,3.24,0,0,0,0-3.94,2.91,2.91,0,0,0-2.19-.71h-0.33v5.35Z" transform="translate(-125.89 -284.96)"/><path class="cls-1" d="M260.52,285a12.57,12.57,0,1,0,12.57,12.57A12.57,12.57,0,0,0,260.52,285Zm0,20.76c-2.63,0-5.76-1.69-5.76-6.21s4.82-8.88,5.76-10.17c0.86,1.34,5.76,5.65,5.76,10.17S263.14,305.73,260.52,305.73Z" transform="translate(-125.89 -284.96)"/></svg>